<mxfile host="app.diagrams.net" modified="2022-04-07T17:01:48.402Z" agent="5.0 (Macintosh; Intel Mac OS X 10_15_7) AppleWebKit/605.1.15 (KHTML, like Gecko) Version/15.4 Safari/605.1.15" etag="AMMV9SIl7xBEcvFIgJC6" version="17.4.0" type="github">
  <diagram id="KMnh7TQLbN4yo-5V2-8c" name="Page-1">
    <mxGraphModel dx="2559" dy="1032" grid="1" gridSize="10" guides="1" tooltips="1" connect="1" arrows="1" fold="1" page="1" pageScale="1" pageWidth="827" pageHeight="1169" math="0" shadow="0">
      <root>
        <mxCell id="0" />
        <mxCell id="1" parent="0" />
        <mxCell id="0GI5nQAW-wKJl9wA_djN-6" style="edgeStyle=orthogonalEdgeStyle;rounded=0;orthogonalLoop=1;jettySize=auto;html=1;entryX=1.04;entryY=0.6;entryDx=0;entryDy=0;entryPerimeter=0;strokeColor=#CCCCCC;" parent="1" source="RUQ7SKwbfHpwLYiek2u8-1" target="0GI5nQAW-wKJl9wA_djN-1" edge="1">
          <mxGeometry relative="1" as="geometry" />
        </mxCell>
        <mxCell id="RUQ7SKwbfHpwLYiek2u8-1" value="IT systeem" style="rounded=1;whiteSpace=wrap;html=1;" parent="1" vertex="1">
          <mxGeometry x="320" y="80" width="120" height="60" as="geometry" />
        </mxCell>
        <mxCell id="0GI5nQAW-wKJl9wA_djN-12" style="edgeStyle=orthogonalEdgeStyle;rounded=0;orthogonalLoop=1;jettySize=auto;html=1;" parent="1" source="0GI5nQAW-wKJl9wA_djN-1" target="0GI5nQAW-wKJl9wA_djN-7" edge="1">
          <mxGeometry relative="1" as="geometry" />
        </mxCell>
        <mxCell id="0GI5nQAW-wKJl9wA_djN-1" value="Toeleverancier" style="strokeWidth=2;html=1;shape=mxgraph.lean_mapping.outside_sources;whiteSpace=wrap;align=center;" parent="1" vertex="1">
          <mxGeometry x="-220" y="50" width="100" height="70" as="geometry" />
        </mxCell>
        <mxCell id="0GI5nQAW-wKJl9wA_djN-4" style="edgeStyle=orthogonalEdgeStyle;rounded=0;orthogonalLoop=1;jettySize=auto;html=1;strokeColor=#CCCCCC;" parent="1" source="0GI5nQAW-wKJl9wA_djN-2" target="0GI5nQAW-wKJl9wA_djN-3" edge="1">
          <mxGeometry relative="1" as="geometry" />
        </mxCell>
        <mxCell id="0GI5nQAW-wKJl9wA_djN-2" value="&lt;table cellpadding=&quot;5&quot; cellspacing=&quot;0&quot; style=&quot;font-size: 1em ; width: 100% ; height: 100%&quot;&gt;&lt;tbody&gt;&lt;tr&gt;&lt;td height=&quot;50%&quot;&gt;&lt;/td&gt;&lt;/tr&gt;&lt;tr&gt;&lt;td align=&quot;center&quot; height=&quot;50%&quot;&gt;Klant&lt;/td&gt;&lt;/tr&gt;&lt;/tbody&gt;&lt;/table&gt;" style="strokeWidth=2;html=1;shape=mxgraph.lean_mapping.outside_sources;whiteSpace=wrap;align=center;" parent="1" vertex="1">
          <mxGeometry x="910" y="60" width="100" height="70" as="geometry" />
        </mxCell>
        <mxCell id="0GI5nQAW-wKJl9wA_djN-3" value="Order" style="ellipse;whiteSpace=wrap;html=1;aspect=fixed;" parent="1" vertex="1">
          <mxGeometry x="540" y="70" width="80" height="80" as="geometry" />
        </mxCell>
        <mxCell id="0GI5nQAW-wKJl9wA_djN-25" style="edgeStyle=orthogonalEdgeStyle;rounded=0;orthogonalLoop=1;jettySize=auto;html=1;entryX=0;entryY=0.5;entryDx=0;entryDy=0;exitX=0.5;exitY=0.8;exitDx=0;exitDy=0;exitPerimeter=0;" parent="1" source="0GI5nQAW-wKJl9wA_djN-7" target="0GI5nQAW-wKJl9wA_djN-13" edge="1">
          <mxGeometry relative="1" as="geometry">
            <Array as="points">
              <mxPoint x="-170" y="470" />
            </Array>
          </mxGeometry>
        </mxCell>
        <mxCell id="0GI5nQAW-wKJl9wA_djN-7" value="Elke &amp;nbsp; &amp;nbsp;&amp;nbsp;&lt;br&gt;ochtend &amp;nbsp; &amp;nbsp; &amp;nbsp; &amp;nbsp;" style="strokeWidth=2;html=1;shape=mxgraph.lean_mapping.truck_shipment;" parent="1" vertex="1">
          <mxGeometry x="-220" y="280" width="100" height="100" as="geometry" />
        </mxCell>
        <mxCell id="0GI5nQAW-wKJl9wA_djN-9" value="elke &amp;nbsp; &amp;nbsp;&lt;br&gt;dag &amp;nbsp; &amp;nbsp;&amp;nbsp;" style="strokeWidth=2;html=1;shape=mxgraph.lean_mapping.truck_shipment;" parent="1" vertex="1">
          <mxGeometry x="920" y="280" width="100" height="100" as="geometry" />
        </mxCell>
        <mxCell id="0GI5nQAW-wKJl9wA_djN-11" style="edgeStyle=orthogonalEdgeStyle;rounded=0;orthogonalLoop=1;jettySize=auto;html=1;entryX=0.4;entryY=1.057;entryDx=0;entryDy=0;entryPerimeter=0;exitX=0.25;exitY=0;exitDx=0;exitDy=0;" parent="1" target="0GI5nQAW-wKJl9wA_djN-2" edge="1" source="0GI5nQAW-wKJl9wA_djN-9">
          <mxGeometry relative="1" as="geometry">
            <mxPoint x="800" y="280" as="sourcePoint" />
          </mxGeometry>
        </mxCell>
        <mxCell id="0GI5nQAW-wKJl9wA_djN-39" style="edgeStyle=orthogonalEdgeStyle;rounded=0;orthogonalLoop=1;jettySize=auto;html=1;entryX=0;entryY=0.5;entryDx=0;entryDy=0;strokeColor=#000000;" parent="1" source="0GI5nQAW-wKJl9wA_djN-13" target="0GI5nQAW-wKJl9wA_djN-35" edge="1">
          <mxGeometry relative="1" as="geometry" />
        </mxCell>
        <mxCell id="0GI5nQAW-wKJl9wA_djN-13" value="Materialen inkopen" style="swimlane;fontStyle=0;childLayout=stackLayout;horizontal=1;startSize=30;horizontalStack=0;resizeParent=1;resizeParentMax=0;resizeLast=0;collapsible=1;marginBottom=0;" parent="1" vertex="1">
          <mxGeometry x="-90" y="440" width="140" height="60" as="geometry" />
        </mxCell>
        <mxCell id="0GI5nQAW-wKJl9wA_djN-27" style="edgeStyle=orthogonalEdgeStyle;rounded=0;orthogonalLoop=1;jettySize=auto;html=1;entryX=0;entryY=0.5;entryDx=0;entryDy=0;" parent="1" source="0GI5nQAW-wKJl9wA_djN-17" target="0GI5nQAW-wKJl9wA_djN-21" edge="1">
          <mxGeometry relative="1" as="geometry" />
        </mxCell>
        <mxCell id="0GI5nQAW-wKJl9wA_djN-17" value="Materialen bewerken" style="swimlane;fontStyle=0;childLayout=stackLayout;horizontal=1;startSize=30;horizontalStack=0;resizeParent=1;resizeParentMax=0;resizeLast=0;collapsible=1;marginBottom=0;" parent="1" vertex="1">
          <mxGeometry x="550" y="440" width="140" height="60" as="geometry" />
        </mxCell>
        <mxCell id="0GI5nQAW-wKJl9wA_djN-28" style="edgeStyle=orthogonalEdgeStyle;rounded=0;orthogonalLoop=1;jettySize=auto;html=1;entryX=0.5;entryY=0.8;entryDx=0;entryDy=0;entryPerimeter=0;" parent="1" source="0GI5nQAW-wKJl9wA_djN-21" edge="1" target="0GI5nQAW-wKJl9wA_djN-9">
          <mxGeometry relative="1" as="geometry">
            <mxPoint x="770" y="320" as="targetPoint" />
          </mxGeometry>
        </mxCell>
        <mxCell id="0GI5nQAW-wKJl9wA_djN-21" value="Materialen bij expeditie&#xa;Â brengen" style="swimlane;fontStyle=0;childLayout=stackLayout;horizontal=1;startSize=30;horizontalStack=0;resizeParent=1;resizeParentMax=0;resizeLast=0;collapsible=1;marginBottom=0;" parent="1" vertex="1">
          <mxGeometry x="790" y="440" width="140" height="60" as="geometry" />
        </mxCell>
        <mxCell id="0GI5nQAW-wKJl9wA_djN-29" value="" style="curved=1;endArrow=classic;html=1;rounded=0;entryX=0.357;entryY=0;entryDx=0;entryDy=0;entryPerimeter=0;exitX=0.5;exitY=1;exitDx=0;exitDy=0;strokeColor=#CCCCCC;" parent="1" source="RUQ7SKwbfHpwLYiek2u8-1" target="0GI5nQAW-wKJl9wA_djN-17" edge="1">
          <mxGeometry width="50" height="50" relative="1" as="geometry">
            <mxPoint x="390" y="360" as="sourcePoint" />
            <mxPoint x="440" y="310" as="targetPoint" />
            <Array as="points">
              <mxPoint x="440" y="360" />
              <mxPoint x="490" y="230" />
            </Array>
          </mxGeometry>
        </mxCell>
        <mxCell id="0GI5nQAW-wKJl9wA_djN-30" value="" style="curved=1;endArrow=classic;html=1;rounded=0;entryX=0.5;entryY=0;entryDx=0;entryDy=0;exitX=0.892;exitY=1.084;exitDx=0;exitDy=0;exitPerimeter=0;strokeColor=#CCCCCC;" parent="1" source="RUQ7SKwbfHpwLYiek2u8-1" target="0GI5nQAW-wKJl9wA_djN-21" edge="1">
          <mxGeometry width="50" height="50" relative="1" as="geometry">
            <mxPoint x="620" y="140" as="sourcePoint" />
            <mxPoint x="599.98" y="370" as="targetPoint" />
            <Array as="points">
              <mxPoint x="680" y="360" />
              <mxPoint x="530" y="240" />
              <mxPoint x="600" y="250" />
              <mxPoint x="570" y="280" />
              <mxPoint x="600" y="210" />
              <mxPoint x="510" y="260" />
            </Array>
          </mxGeometry>
        </mxCell>
        <mxCell id="0GI5nQAW-wKJl9wA_djN-31" value="" style="curved=1;endArrow=classic;html=1;rounded=0;entryX=0.629;entryY=0.017;entryDx=0;entryDy=0;entryPerimeter=0;strokeColor=#CCCCCC;" parent="1" source="RUQ7SKwbfHpwLYiek2u8-1" target="0GI5nQAW-wKJl9wA_djN-13" edge="1">
          <mxGeometry width="50" height="50" relative="1" as="geometry">
            <mxPoint x="180" y="140" as="sourcePoint" />
            <mxPoint x="159.98000000000002" y="370" as="targetPoint" />
            <Array as="points">
              <mxPoint x="240" y="360" />
              <mxPoint x="160" y="210" />
            </Array>
          </mxGeometry>
        </mxCell>
        <mxCell id="0GI5nQAW-wKJl9wA_djN-34" value="" style="curved=1;endArrow=classic;html=1;rounded=0;entryX=1;entryY=0.5;entryDx=0;entryDy=0;exitX=0;exitY=0.5;exitDx=0;exitDy=0;fillColor=#f5f5f5;strokeColor=#B3B3B3;" parent="1" source="0GI5nQAW-wKJl9wA_djN-3" target="RUQ7SKwbfHpwLYiek2u8-1" edge="1">
          <mxGeometry width="50" height="50" relative="1" as="geometry">
            <mxPoint x="470" y="140" as="sourcePoint" />
            <mxPoint x="520" y="90" as="targetPoint" />
            <Array as="points">
              <mxPoint x="520" y="140" />
              <mxPoint x="470" y="90" />
            </Array>
          </mxGeometry>
        </mxCell>
        <mxCell id="0GI5nQAW-wKJl9wA_djN-47" style="edgeStyle=orthogonalEdgeStyle;rounded=0;orthogonalLoop=1;jettySize=auto;html=1;entryX=0;entryY=0.5;entryDx=0;entryDy=0;strokeColor=#000000;" parent="1" source="0GI5nQAW-wKJl9wA_djN-35" target="0GI5nQAW-wKJl9wA_djN-43" edge="1">
          <mxGeometry relative="1" as="geometry" />
        </mxCell>
        <mxCell id="0GI5nQAW-wKJl9wA_djN-35" value="materialen in ontvangst&#xa;nemen" style="swimlane;fontStyle=0;childLayout=stackLayout;horizontal=1;startSize=30;horizontalStack=0;resizeParent=1;resizeParentMax=0;resizeLast=0;collapsible=1;marginBottom=0;" parent="1" vertex="1">
          <mxGeometry x="110" y="440" width="140" height="60" as="geometry" />
        </mxCell>
        <mxCell id="0GI5nQAW-wKJl9wA_djN-42" value="" style="curved=1;endArrow=classic;html=1;rounded=0;entryX=0.5;entryY=0;entryDx=0;entryDy=0;exitX=0.408;exitY=1;exitDx=0;exitDy=0;strokeColor=#CCCCCC;exitPerimeter=0;" parent="1" source="RUQ7SKwbfHpwLYiek2u8-1" target="0GI5nQAW-wKJl9wA_djN-35" edge="1">
          <mxGeometry width="50" height="50" relative="1" as="geometry">
            <mxPoint x="390" y="150" as="sourcePoint" />
            <mxPoint x="473.98" y="430" as="targetPoint" />
            <Array as="points">
              <mxPoint x="310" y="260" />
              <mxPoint x="260" y="330" />
              <mxPoint x="310" y="310" />
              <mxPoint x="340" y="290" />
              <mxPoint x="310" y="250" />
            </Array>
          </mxGeometry>
        </mxCell>
        <mxCell id="A2Kz1MdOx0c7z8DkNClT-1" style="edgeStyle=orthogonalEdgeStyle;rounded=0;orthogonalLoop=1;jettySize=auto;html=1;entryX=0;entryY=0.5;entryDx=0;entryDy=0;strokeColor=#000000;" edge="1" parent="1" source="0GI5nQAW-wKJl9wA_djN-43" target="0GI5nQAW-wKJl9wA_djN-17">
          <mxGeometry relative="1" as="geometry" />
        </mxCell>
        <mxCell id="0GI5nQAW-wKJl9wA_djN-43" value="Orderpricking intern" style="swimlane;fontStyle=0;childLayout=stackLayout;horizontal=1;startSize=30;horizontalStack=0;resizeParent=1;resizeParentMax=0;resizeLast=0;collapsible=1;marginBottom=0;" parent="1" vertex="1">
          <mxGeometry x="340" y="440" width="140" height="60" as="geometry" />
        </mxCell>
        <mxCell id="0GI5nQAW-wKJl9wA_djN-48" value="" style="curved=1;endArrow=classic;html=1;rounded=0;strokeColor=#CCCCCC;exitX=0.5;exitY=1;exitDx=0;exitDy=0;entryX=0.5;entryY=0;entryDx=0;entryDy=0;" parent="1" source="RUQ7SKwbfHpwLYiek2u8-1" target="0GI5nQAW-wKJl9wA_djN-43" edge="1">
          <mxGeometry width="50" height="50" relative="1" as="geometry">
            <mxPoint x="390" y="360" as="sourcePoint" />
            <mxPoint x="440" y="310" as="targetPoint" />
            <Array as="points">
              <mxPoint x="440" y="360" />
              <mxPoint x="390" y="310" />
            </Array>
          </mxGeometry>
        </mxCell>
        <mxCell id="A2Kz1MdOx0c7z8DkNClT-3" value="" style="endArrow=none;html=1;rounded=0;strokeColor=#000000;" edge="1" parent="1">
          <mxGeometry width="50" height="50" relative="1" as="geometry">
            <mxPoint x="-200" y="520" as="sourcePoint" />
            <mxPoint x="930" y="560" as="targetPoint" />
            <Array as="points">
              <mxPoint x="-90" y="520" />
              <mxPoint x="-90" y="560" />
              <mxPoint x="40" y="560" />
              <mxPoint x="40" y="520" />
              <mxPoint x="110" y="520" />
              <mxPoint x="110" y="560" />
              <mxPoint x="250" y="560" />
              <mxPoint x="250" y="520" />
              <mxPoint x="340" y="520" />
              <mxPoint x="340" y="560" />
              <mxPoint x="480" y="560" />
              <mxPoint x="480" y="520" />
              <mxPoint x="550" y="520" />
              <mxPoint x="550" y="560" />
              <mxPoint x="690" y="560" />
              <mxPoint x="690" y="520" />
              <mxPoint x="790" y="520" />
              <mxPoint x="790" y="560" />
              <mxPoint x="930" y="560" />
            </Array>
          </mxGeometry>
        </mxCell>
      </root>
    </mxGraphModel>
  </diagram>
</mxfile>
